<?xml version="1.0" encoding="UTF-8"?><!--
  - Copyright (c) 2025
  - All rights reserved.
  - Project: USTH Weather
  - File: cloudy-3-night.svg
  - Created: 8/9/2025 10:33
  - Last Modified: 8/9/2025 10:33
  -->

<!-- (c) ammap.com | SVG weather icons -->
<svg height="48"
    version="1.1"
    width="56"
    xmlns="http://www.w3.org/2000/svg">
    <defs>
        <filter
            height="1.6884"
            id="blur"
            width="1.3744"
            x="-.19471"
            y="-.26087">
            <feGaussianBlur
                in="SourceAlpha"
                stdDeviation="3" />
            <feOffset
                dx="0"
                dy="4"
                result="offsetblur" />
            <feComponentTransfer>
                <feFuncA
                    slope="0.05"
                    type="linear" />
            </feComponentTransfer>
            <feMerge>
                <feMergeNode />
                <feMergeNode in="SourceGraphic" />
            </feMerge>
        </filter>
    </defs>
    <g
        filter="url(#blur)"
        transform="translate(16,-2)">
        <g transform="matrix(.8 0 0 .8 16 4)">
            <g class="am-weather-moon-star-1">
                <polygon
                    fill="#ffa500"
                    points="1.5 3.3 2.7 2.7 3.3 1.5 4 2.7 5.2 3.3 4 4 3.3 5.2 2.7 4"
                    stroke-miterlimit="10" />
            </g>
            <g class="am-weather-moon-star-2">
                <polygon
                    fill="#ffa500"
                    points="1.5 3.3 2.7 2.7 3.3 1.5 4 2.7 5.2 3.3 4 4 3.3 5.2 2.7 4"
                    stroke-miterlimit="10"
                    transform="translate(20,10)" />
            </g>
            <g class="am-weather-moon">
                <path
                    d="m14.5 13.2c0-3.7 2-6.9 5-8.7-1.5-0.9-3.2-1.3-5-1.3-5.5 0-10 4.5-10 10s4.5 10 10 10c1.8 0 3.5-0.5 5-1.3-3-1.7-5-5-5-8.7z"
                    fill="#ffa500"
                    stroke="#ffa500"
                    stroke-linejoin="round"
                    stroke-width="2" />
            </g>
        </g>
        <g class="am-weather-cloud-3">
            <path
                d="m47.7 35.4c0-4.6-3.7-8.2-8.2-8.2-1 0-1.9 0.2-2.8 0.5-0.3-3.4-3.1-6.2-6.6-6.2-3.7 0-6.7 3-6.7 6.7 0 0.8 0.2 1.6 0.4 2.3-0.3-0.1-0.7-0.1-1-0.1-3.7 0-6.7 3-6.7 6.7 0 3.6 2.9 6.6 6.5 6.7h17.2c4.4-0.5 7.9-4 7.9-8.4z"
                fill="#57a0ee"
                stroke="#fff"
                stroke-linejoin="round"
                stroke-width="1.2"
                transform="translate(-20,-11)" />
        </g>
    </g>
</svg>