<?xml version="1.0" encoding="UTF-8"?><!--
  - Copyright (c) 2025
  - All rights reserved.
  - Project: USTH Weather
  - File: fog-night.svg
  - Created: 8/9/2025 10:33
  - Last Modified: 8/9/2025 10:33
  -->

<!-- (c) ammap.com | SVG weather icons -->
<svg height="48"
    version="1.1"
    width="56"
    xmlns="http://www.w3.org/2000/svg">
    <defs>
        <filter
            height="1.4997"
            id="blur"
            width="1.403"
            x="-.20655"
            y="-.21122">
            <feGaussianBlur
                in="SourceAlpha"
                stdDeviation="3" />
            <feOffset
                dx="0"
                dy="4"
                result="offsetblur" />
            <feComponentTransfer>
                <feFuncA
                    slope="0.05"
                    type="linear" />
            </feComponentTransfer>
            <feMerge>
                <feMergeNode />
                <feMergeNode in="SourceGraphic" />
            </feMerge>
        </filter>
    </defs>
    <g
        filter="url(#blur)"
        transform="translate(16,-2)">
        <g transform="matrix(.8 0 0 .8 16 4)">
            <g class="am-weather-moon-star-1">
                <polygon
                    fill="#ffc04a"
                    points="1.5 3.3 2.7 2.7 3.3 1.5 4 2.7 5.2 3.3 4 4 3.3 5.2 2.7 4"
                    stroke-miterlimit="10" />
            </g>
            <g class="am-weather-moon-star-2">
                <polygon
                    fill="#ffc04a"
                    points="1.5 3.3 2.7 2.7 3.3 1.5 4 2.7 5.2 3.3 4 4 3.3 5.2 2.7 4"
                    stroke-miterlimit="10"
                    transform="translate(20,10)" />
            </g>
            <g class="am-weather-moon">
                <path
                    d="m14.5 13.2c0-3.7 2-6.9 5-8.7-1.5-0.9-3.2-1.3-5-1.3-5.5 0-10 4.5-10 10s4.5 10 10 10c1.8 0 3.5-0.5 5-1.3-3-1.7-5-5-5-8.7z"
                    fill="#ffc04a"
                    stroke="#ffc04a"
                    stroke-linejoin="round"
                    stroke-width="2" />
            </g>
        </g>
        <g
            class="am-weather-fog"
            fill="none"
            stroke="#c6deff"
            stroke-linecap="round"
            stroke-width="2"
            transform="translate(-10,20)">
            <line
                class="am-weather-fog-1"
                stroke-dasharray="3, 5, 17, 5, 7"
                x1="1"
                x2="37"
                y1="0"
                y2="0" />
            <line
                class="am-weather-fog-2"
                stroke-dasharray="11, 7, 15"
                x1="9"
                x2="33"
                y1="5"
                y2="5" />
            <line
                class="am-weather-fog-3"
                stroke-dasharray="11, 7, 3, 5, 9"
                x1="5"
                x2="40"
                y1="10"
                y2="10" />
            <line
                class="am-weather-fog-4"
                stroke-dasharray="13, 5, 9, 5, 3"
                x1="7"
                x2="42"
                y1="15"
                y2="15" />
        </g>
    </g>
</svg>