<?xml version="1.0" encoding="UTF-8"?><!--
  - Copyright (c) 2025
  - All rights reserved.
  - Project: USTH Weather
  - File: isolated-thunderstorms.svg
  - Created: 8/9/2025 10:33
  - Last Modified: 8/9/2025 10:33
  -->

<!-- (c) ammap.com | SVG weather icons -->
<!-- Isolated Thunderstorms | Contributed by hsoJ95 on GitHub: https://github.com/hsoj95 -->
<svg height="48"
    version="1.1"
    width="56"
    xmlns="http://www.w3.org/2000/svg">
    <defs>
        <filter
            height="1.4766"
            id="blur"
            width="1.403"
            x="-.20655"
            y="-.1975">
            <feGaussianBlur
                in="SourceAlpha"
                stdDeviation="3" />
            <feOffset
                dx="0"
                dy="4"
                result="offsetblur" />
            <feComponentTransfer>
                <feFuncA
                    slope="0.05"
                    type="linear" />
            </feComponentTransfer>
            <feMerge>
                <feMergeNode />
                <feMergeNode in="SourceGraphic" />
            </feMerge>
        </filter>
    </defs>
    <g
        filter="url(#blur)"
        transform="translate(16,-2)">
        <g class="am-weather-cloud-2">
            <path
                d="m47.7 35.4c0-4.6-3.7-8.2-8.2-8.2-1 0-1.9 0.2-2.8 0.5-0.3-3.4-3.1-6.2-6.6-6.2-3.7 0-6.7 3-6.7 6.7 0 0.8 0.2 1.6 0.4 2.3-0.3-0.1-0.7-0.1-1-0.1-3.7 0-6.7 3-6.7 6.7 0 3.6 2.9 6.6 6.5 6.7h17.2c4.4-0.5 7.9-4 7.9-8.4z"
                fill="#91c0f8"
                stroke="#fff"
                stroke-linejoin="round"
                stroke-width="1.2"
                transform="translate(-20,-11)" />
        </g>
        <g
            class="am-weather-lightning"
            transform="matrix(1.2,0,0,1.2,-4,28)">
            <polygon
                class="am-weather-stroke"
                fill="#ffa500"
                points="11.1 6.9 14.3 -2.9 20.5 -2.9 16.4 4.3 20.3 4.3 11.5 14.6 14.9 6.9"
                stroke="#fff" />
        </g>
    </g>
</svg>